<?xml version="1.0" encoding="UTF-8" standalone="no"?>
<svg
   xmlns:dc="http://purl.org/dc/elements/1.1/"
   xmlns:cc="http://creativecommons.org/ns#"
   xmlns:rdf="http://www.w3.org/1999/02/22-rdf-syntax-ns#"
   xmlns:svg="http://www.w3.org/2000/svg"
   xmlns="http://www.w3.org/2000/svg"
   xmlns:sodipodi="http://sodipodi.sourceforge.net/DTD/sodipodi-0.dtd"
   xmlns:inkscape="http://www.inkscape.org/namespaces/inkscape"
   id="a0b49279-671d-4bdd-aed5-fc41abe79aaa"
   data-name="Layer 1"
   width="847.6197"
   height="386.288"
   viewBox="0 0 847.6197 386.288"
   version="1.1"
   sodipodi:docname="human_robot_interaction.svg"
   inkscape:version="0.92.3 (2405546, 2018-03-11)">
  <metadata
     id="metadata4116">
    <rdf:RDF>
      <cc:Work
         rdf:about="">
        <dc:format>image/svg+xml</dc:format>
        <dc:type
           rdf:resource="http://purl.org/dc/dcmitype/StillImage" />
      </cc:Work>
    </rdf:RDF>
  </metadata>
  <defs
     id="defs4114" />
  <sodipodi:namedview
     pagecolor="#ffffff"
     bordercolor="#666666"
     borderopacity="1"
     objecttolerance="10"
     gridtolerance="10"
     guidetolerance="10"
     inkscape:pageopacity="0"
     inkscape:pageshadow="2"
     inkscape:window-width="2493"
     inkscape:window-height="1385"
     id="namedview4112"
     showgrid="false"
     inkscape:zoom="1.6139314"
     inkscape:cx="441.56512"
     inkscape:cy="122.60753"
     inkscape:window-x="67"
     inkscape:window-y="27"
     inkscape:window-maximized="1"
     inkscape:current-layer="a0b49279-671d-4bdd-aed5-fc41abe79aaa" />
  <circle
     cx="779.26626"
     cy="180.30992"
     r="38"
     fill="#f2f2f2"
     id="circle4043" />
  <circle
     cx="779.26626"
     cy="180.30992"
     r="10"
     fill="#e6e6e6"
     id="circle4045" />
  <path
     d="M953.62933,437.37949c4.21232,3.43649,5.49592,8.85257,4.71218,14.08229a24.45215,24.45215,0,0,1-8.394,14.68089c-5.00924,4.45233-11.1191,7.46085-17.01448,10.54154a123.75213,123.75213,0,0,0-15.57529,9.45471c-18.96063,13.7809-33.28511,33.40312-41.48334,55.3-8.1844,21.85994-10.38035,46.67168-4.16128,69.32729,3.077,11.20916,9.30169,23.30307,20.89812,27.5209,9.24369,3.36209,21.864,1.19633,26.57069-8.33047,5.05592-10.23367-1.998-21.73722-11.08431-26.81766-11.77824-6.5856-25.84735-1.77336-36.44112,4.89279-11.66306,7.339-21.03868,17.87056-33.21534,24.44828a41.73876,41.73876,0,0,1-17.84367,5.20536,44.68956,44.68956,0,0,1-16.909-2.61231,57.27268,57.27268,0,0,1-27.66166-21.47129c-7.73426-11.24292-11.19627-25.02477-11.82763-38.52511-1.41262-30.20619,10.51982-58.4649,20.09358-86.47742a264.21067,264.21067,0,0,0,11.51923-44.8596,232.40593,232.40593,0,0,0,2.54533-46.38837c-.63367-13.71367-1.98648-28.054-8.0391-40.57887-5.32217-11.01334-15.0489-20.02716-27.34646-22.29967a27.27728,27.27728,0,0,0-16.43941,1.88837c-1.75416.80022-.23123,3.38662,1.51416,2.59041,10.88282-4.96455,23.74565-.13414,31.78379,7.88181,9.38649,9.36057,12.83346,23.18379,14.36407,35.93871a225.58927,225.58927,0,0,1-7.96815,89.993c-8.34677,28.35216-21.476,55.521-24.5056,85.22575-1.38243,13.55453-.67224,27.56718,3.66032,40.56478a63.359,63.359,0,0,0,20.07822,29.56579c8.84214,7.14826,19.71981,12.01852,31.171,12.56105,12.85436.609,24.12668-5.12157,34.09957-12.7448,10.68114-8.1646,20.50852-18.23866,33.447-22.81668,5.89862-2.08709,12.617-3.0607,18.67336-1.052a23.4303,23.4303,0,0,1,12.4523,10.012c2.63043,4.37385,3.60072,9.84247,1.20032,14.5411-2.25686,4.41768-6.662,6.97294-11.43071,7.84743a22.17976,22.17976,0,0,1-14.72394-2.50178c-5.22406-2.98356-9.04665-7.99083-11.72468-13.28109-5.34038-10.5495-7.13473-23.10743-7.40712-34.81666a115.28688,115.28688,0,0,1,4.34843-33.85332,119.45634,119.45634,0,0,1,36.08916-57.52881,105.96132,105.96132,0,0,1,13.97433-10.289c5.38-3.316,11.12259-5.96561,16.6072-9.09444,5.39679-3.07872,10.71546-6.75721,14.43185-11.82346a25.43467,25.43467,0,0,0,4.88726-14.95064,16.76606,16.76606,0,0,0-5.80386-13.07206c-1.48381-1.21052-3.61863.89979-2.12132,2.12132Z"
     transform="translate(-176.19015 -256.856)"
     fill="#ccc"
     id="path4047" />
  <path
     d="M598.87633,612.16592a87.33929,87.33929,0,0,0,44.47022,13.94,20.84973,20.84973,0,0,1-.9502,1.96,25.06735,25.06735,0,0,1-7.60009,8.55,24.96917,24.96917,0,0,1-39.33985-20.42v-4.03Z"
     transform="translate(-176.19015 -256.856)"
     fill="#3f3d56"
     id="path4049" />
  <path
     d="M692.14635,613.34591v2.85a24.96061,24.96061,0,0,1-46.87988,11.95,20.84826,20.84826,0,0,1-.99023-2.01c.73.02,1.45019.03,2.18017.03A87.46657,87.46657,0,0,0,692.14635,613.34591Z"
     transform="translate(-176.19015 -256.856)"
     fill="#3f3d56"
     id="path4051" />
  <path
     d="M725.78649,311.9659c-.75-.11-1.51025-.18-2.27-.23a83.981,83.981,0,0,1,1.66992,62.71c.76026-.09,1.51026-.21,2.26026-.35a31.50228,31.50228,0,0,0-1.66016-62.13Z"
     transform="translate(-176.19015 -256.856)"
     fill="#3f3d56"
     id="path4053" />
  <path
     d="M569.39635,311.73592c-.75976.05-1.52.12-2.27.23a31.50227,31.50227,0,0,0-1.66015,62.13c.75.14,1.5.26,2.26025.35a83.981,83.981,0,0,1,1.66992-62.71Z"
     transform="translate(-176.19015 -256.856)"
     fill="#3f3d56"
     id="path4055" />
  <path
     d="M725.78649,311.9659a85.99677,85.99677,0,1,0,6.66992,33.2A86.1148,86.1148,0,0,0,725.78649,311.9659Zm-.6001,62.48a83.981,83.981,0,1,1,5.27-29.28A84.122,84.122,0,0,1,725.18639,374.44594Z"
     transform="translate(-176.19015 -256.856)"
     fill="#3f3d56"
     id="path4057" />
  <path
     d="M690.45641,325.66592h-88a17.5,17.5,0,0,0,0,35h88a17.5,17.5,0,0,0,0-35Z"
     transform="translate(-176.19015 -256.856)"
     fill="#3f3d56"
     id="path4059" />
  <path
     d="M646.45641,448.16592a89.99675,89.99675,0,0,0-4.06006,179.9c.9502.05,1.91016.08,2.87012.08.3999.02.79.02,1.18994.02a90,90,0,0,0,0-180Zm45.68994,165.18a87.46657,87.46657,0,0,1-45.68994,12.82c-.73,0-1.45019-.01-2.18017-.03q-.46509,0-.92969-.03a88.0512,88.0512,0,1,1,48.7998-12.76Z"
     id="path4061"
     fill="#3f3d56"
     transform="translate(-176.19015 -256.856)" />
  <path
     d="M709.62316,515.99941h-39.3335a10.3335,10.3335,0,0,1,0-20.667h39.3335a10.3335,10.3335,0,0,1,0,20.667Z"
     transform="translate(-176.19015 -256.856)"
     fill="#3f3d56"
     id="path4063" />
  <circle
     cx="496.72182"
     cy="248.80992"
     r="5.24444"
     fill="#f2f2f2"
     id="circle4065" />
  <circle
     cx="513.76626"
     cy="248.80992"
     r="5.24444"
     fill="#f2f2f2"
     id="circle4067" />
  <circle
     cx="530.81071"
     cy="248.80992"
     r="5.24444"
     fill="#ff6366"
     id="circle4069" />
  <path
     d="M340.81553,638.55356c8.99256-7.59864,14.45479-19.60227,13.02232-31.28788s-10.30472-22.42829-21.81332-24.90978-24.62761,4.38768-28.12315,15.62987c-1.92376-21.6745-4.14055-44.25714-15.6641-62.715-10.43429-16.71314-28.50667-28.672-48.09305-30.81147s-40.20832,5.941-52.42362,21.40027-15.20618,37.93388-6.6509,55.68241c6.30238,13.07473,17.91358,22.80511,30.07923,30.72127,38.81262,25.2553,86.95964,33.78829,132.77224,27.04622Z"
     transform="translate(-176.19015 -256.856)"
     fill="#f2f2f2"
     id="path4071" />
  <path
     d="M207.08924,510.8482a317.625,317.625,0,0,1,44.26411,43.95415,322.163,322.163,0,0,1,34.90754,51.66276,320.84426,320.84426,0,0,1,14.94817,31.65122c.89773,2.19991-2.67454,3.15752-3.56229.98208A315.27614,315.27614,0,0,0,268.839,584.59284a317.26015,317.26015,0,0,0-38.63584-47.729A316.50072,316.50072,0,0,0,204.477,513.46043c-1.8443-1.5018.78314-4.10164,2.61223-2.61223Z"
     transform="translate(-176.19015 -256.856)"
     fill="#fff"
     id="path4073" />
  <circle
     cx="161.57649"
     cy="35"
     r="31"
     fill="#2f2e41"
     id="circle4075" />
  <path
     d="M453.38374,405.36728a10.77786,10.77786,0,0,1-2.14862,2.37261,11.0024,11.0024,0,0,1-16.227-2.49759,10.23957,10.23957,0,0,1-.53728-.9378l-48.84971-4.713a18.013,18.013,0,0,1-15.887-14.49974l-2.77273-14.61708,19.06439-2.96585,3.42115,11.7085,47.6279,11.69913a10.48965,10.48965,0,0,1,1.17046-.89009,11.00253,11.00253,0,0,1,15.13851,15.341Z"
     transform="translate(-176.19015 -256.856)"
     fill="#ffb8b8"
     id="path4077" />
  <path
     d="M390.6179,377.45l-21.296,5.75282a4.50507,4.50507,0,0,1-5.51783-3.17073l-7.459-27.61183a12.3986,12.3986,0,0,1,23.00384-8.88775l14.10045,27.5212A4.49956,4.49956,0,0,1,390.6179,377.45Z"
     transform="translate(-176.19015 -256.856)"
     fill="#2f2e41"
     id="path4079" />
  <polygon
     points="202.092 374.133 214.351 374.133 220.184 326.845 202.089 326.846 202.092 374.133"
     fill="#ffb8b8"
     id="polygon4081" />
  <path
     d="M375.65481,627.48572h38.53073a0,0,0,0,1,0,0v14.88687a0,0,0,0,1,0,0H390.54167a14.88686,14.88686,0,0,1-14.88686-14.88686v0A0,0,0,0,1,375.65481,627.48572Z"
     transform="translate(613.67919 1012.98428) rotate(179.99738)"
     fill="#2f2e41"
     id="path4083" />
  <polygon
     points="92.822 362.185 104.292 366.515 126.454 324.337 109.526 317.946 92.822 362.185"
     fill="#ffb8b8"
     id="polygon4085" />
  <path
     d="M263.92068,621.16128h38.53073a0,0,0,0,1,0,0v14.88687a0,0,0,0,1,0,0H278.80754a14.88686,14.88686,0,0,1-14.88686-14.88686v0A0,0,0,0,1,263.92068,621.16128Z"
     transform="translate(149.88268 1059.86131) rotate(-159.31482)"
     fill="#2f2e41"
     id="path4087" />
  <path
     d="M377.89481,620.00541a4.49693,4.49693,0,0,1-4.27564-3.11425L342.35062,520.3267a1.50038,1.50038,0,0,0-2.78491-.17676l-43.33448,92.20118a4.50408,4.50408,0,0,1-5.49536,2.35547L273.669,609.01713a4.5089,4.5089,0,0,1-2.92774-5.418l26.54444-100.54687a229.08189,229.08189,0,0,0,6.00342-32.42676,73.50978,73.50978,0,0,1,23.71679-46.877,34.20494,34.20494,0,0,0,10.76587-20.46289l.07154-.50293,38.87377,6.13769,24.62354,200.92871a4.52009,4.52009,0,0,1-3.29688,4.8916l-18.97387,5.1084A4.47969,4.47969,0,0,1,377.89481,620.00541Z"
     transform="translate(-176.19015 -256.856)"
     fill="#2f2e41"
     id="path4089" />
  <circle
     cx="173.89145"
     cy="41.29134"
     r="24.56103"
     fill="#ffb8b8"
     id="circle4091" />
  <path
     d="M374.3013,413.20463c-.0769,0-.15381-.002-.23144-.00586L335.534,411.272a4.475,4.475,0,0,1-4.252-4.03515l-5.26441-51.32813a23.17175,23.17175,0,0,1,29.32422-24.66992h.00024a22.47446,22.47446,0,0,1,8.24561,4.2417c27.10815,22.26221,18.36743,62.59815,15.04272,74.43018A4.48226,4.48226,0,0,1,374.3013,413.20463Z"
     transform="translate(-176.19015 -256.856)"
     fill="#ff6366"
     id="path4093" />
  <path
     d="M340.7764,447.67045a10.77781,10.77781,0,0,1-3.16553-.47461,11.0024,11.0024,0,0,1-6.90918-14.89355,10.23809,10.23809,0,0,1,.48316-.9668l-23.13526-43.28125a18.013,18.013,0,0,1,3.27173-21.25879l10.63379-10.40527,13.02954,14.22949-7.853,9.334,16.64209,46.13378a10.492,10.492,0,0,1,1.3894.48145,11.00252,11.00252,0,0,1-4.38672,21.10156Z"
     transform="translate(-176.19015 -256.856)"
     fill="#ffb8b8"
     id="path4095" />
  <path
     d="M329.25165,379.94968l-16.586-14.54365a4.50508,4.50508,0,0,1-.41663-6.35031l18.85694-21.505a12.3986,12.3986,0,0,1,20.14207,14.229L336.14543,378.764a4.49956,4.49956,0,0,1-6.89378,1.18565Z"
     transform="translate(-176.19015 -256.856)"
     fill="#2f2e41"
     id="path4097" />
  <path
     d="M334.27658,322.00531c2.24091.79458,4.98823,1.49515,6.75163-.15284,1.72153-1.60886,1.40789-4.551.39375-6.71849s-2.587-4.09633-3.0692-6.45551c-.69115-3.38111,1.09579-6.89375,3.64667-9.09811s5.7618-3.36231,8.89636-4.47657l17.19315-6.11178c4.25582-1.51284,8.84187-3.29,11.22343-7.2712,3.446-5.76061.2957-13.99506-5.3568-17.35649s-12.79229-2.7352-18.89074-.3716c-3.373,1.30726-6.58157,3.10864-10.06978,4.02888-6.88427,1.81616-14.71189.18688-20.76149,4.06849-5.26616,3.37892-7.70874,10.27337-7.53138,16.72432s2.55256,12.5945,5.05791,18.4942c1.49051,3.50993,3.08274,7.0603,5.60736,9.85195s6.17289,4.74455,9.81715,4.23088Z"
     transform="translate(-176.19015 -256.856)"
     fill="#2f2e41"
     id="path4099" />
  <circle
     cx="135.57649"
     cy="20"
     r="20"
     fill="#2f2e41"
     id="circle4101" />
  <path
     id="a5b0fbf6-85a2-48e8-ad40-c81376cd9893"
     data-name="Path 22"
     d="M473.97839,392.30638l-.35491-.04878,1.33654-9.72271a5.68039,5.68039,0,0,0-4.85388-6.401l-20.59957-2.83172a5.68038,5.68038,0,0,0-6.401,4.85388l-7.33245,53.34046a5.68038,5.68038,0,0,0,4.85388,6.401l20.59956,2.83172a5.6804,5.6804,0,0,0,6.401-4.85389L472.672,399.1784l.35491.04879Z"
     transform="translate(-176.19015 -256.856)"
     fill="#3f3d56" />
  <path
     id="a5d1dbd7-b3f0-4599-af89-34309e57a462"
     data-name="Path 23"
     d="M469.4586,378.98628l-2.56459-.35254a1.92232,1.92232,0,0,1-2.12411,2.38125l-11.25648-1.54737a1.92233,1.92233,0,0,1-1.40261-2.86605l-2.39549-.3293a4.04622,4.04622,0,0,0-4.55957,3.4575L438.17193,430.534a4.04624,4.04624,0,0,0,3.45751,4.55957l19.74328,2.714a4.04624,4.04624,0,0,0,4.55957-3.4575h0l6.98382-50.80435a4.04623,4.04623,0,0,0-3.45751-4.55949Z"
     transform="translate(-176.19015 -256.856)"
     fill="#fff" />
  <circle
     cx="279.26626"
     cy="153.30992"
     r="11"
     fill="#ff6366"
     id="circle4105" />
  <path
     d="M454.36606,414.36216a1.14079,1.14079,0,0,1-.68644-.228l-.01227-.00921-2.58508-1.97923a1.14849,1.14849,0,1,1,1.397-1.8233l1.67441,1.28392,3.95691-5.16039a1.14846,1.14846,0,0,1,1.61023-.21256l-.0246.0334.02524-.03291a1.14978,1.14978,0,0,1,.21256,1.61024l-4.65427,6.06985A1.149,1.149,0,0,1,454.36606,414.36216Z"
     transform="translate(-176.19015 -256.856)"
     fill="#fff"
     id="path4107" />
  <path
     d="M1022.61917,643.144h-839.294a1.19069,1.19069,0,0,1,0-2.38137h839.294a1.19068,1.19068,0,0,1,0,2.38137Z"
     transform="translate(-176.19015 -256.856)"
     fill="#ccc"
     id="path4109" />
  <path
     style="fill:#999999;fill-opacity:1;fill-rule:nonzero;stroke-width:0.21906346"
     d="m 463.87371,368.98647 c -0.36146,-0.0482 -1.74156,-0.19495 -3.06689,-0.32616 -7.31341,-0.72402 -15.49826,-2.74117 -22.7826,-5.61474 -28.35731,-11.1866 -48.77752,-36.0059 -54.30346,-66.00196 -1.07198,-5.81895 -1.32618,-8.8422 -1.32618,-15.77257 0,-6.9174 0.25103,-9.91287 1.32177,-15.77256 5.46652,-29.91582 25.91925,-54.82584 54.19834,-66.00985 10.49634,-4.15116 20.89633,-6.11932 32.31186,-6.11488 6.98833,0.003 12.72081,0.6204 19.16805,2.06536 19.80887,4.4396 37.64473,15.7083 50.08346,31.64276 18.36094,23.52103 23.57132,54.68745 13.84828,82.835 -9.66552,27.98104 -32.66854,49.15854 -61.45935,56.58194 -3.01051,0.77623 -7.34303,1.59542 -11.06852,2.09285 -2.53068,0.33789 -15.14439,0.63214 -16.92476,0.39481 z m 72.68407,-110.28099 c 6.51451,-2.01213 9.31516,-9.81039 5.60162,-15.59744 -1.43776,-2.24055 -4.16418,-4.04426 -6.85647,-4.53601 -0.87415,-0.15967 -7.97676,-0.23636 -21.68729,-0.23419 -22.42871,0.004 -21.89888,-0.0256 -24.47843,1.34925 -7.8851,4.20271 -6.92485,15.94726 1.54842,18.93841 l 1.44726,0.5109 21.49991,0.005 c 20.92104,0.004 21.53828,-0.007 22.92498,-0.43554 z"
     id="path4934"
     inkscape:connector-curvature="0" />
  <path
     style="fill:#ff8080;fill-opacity:1;fill-rule:nonzero;stroke-width:0.21906346"
     d="m 463.65464,171.92866 c -17.13152,-1.47458 -32.47941,-7.59075 -46.00332,-18.33243 -3.40146,-2.70169 -9.92538,-9.24165 -12.76379,-12.79519 -9.84348,-12.32345 -16.02398,-27.05044 -17.90615,-42.667049 -0.49545,-4.11079 -0.66561,-11.857855 -0.34886,-15.882975 1.98699,-25.249509 14.62305,-47.690558 35.07147,-62.28528 11.8082,-8.427905 25.7048,-13.6089408 40.7458,-15.1911612 3.7529,-0.3947813 12.814,-0.3304994 16.64883,0.1181114 12.16182,1.4227314 23.02678,4.9514727 32.99778,10.7170728 21.49697,12.430358 36.17241,33.275644 40.70118,57.812806 1.70314,9.227738 1.7448,19.730928 0.11595,29.238675 -3.80533,22.21205 -16.86835,42.41546 -35.58834,55.0413 -12.37259,8.34479 -26.01301,13.09413 -40.94191,14.2552 -3.28985,0.25586 -9.58529,0.24148 -12.72864,-0.0291 z m 55.64212,-68.72675 c 5.69609,-1.92486 9.84551,-5.946029 11.59663,-11.238177 3.20781,-9.694443 -2.12223,-19.74109 -12.03475,-22.684433 -1.23979,-0.368132 -3.95635,-0.393705 -47.86537,-0.450607 -41.88244,-0.05428 -46.72541,-0.0253 -48.29014,0.288888 -6.5797,1.321176 -11.80572,6.346382 -13.50349,12.984594 -0.58736,2.296535 -0.57704,6.148542 0.0228,8.493851 1.62023,6.335479 6.55253,11.226744 12.90218,12.794834 1.59926,0.39495 3.39427,0.40859 48.64964,0.36966 l 46.98911,-0.0404 z"
     id="path4936"
     inkscape:connector-curvature="0" />
  <path
     style="fill:#ffaaaa;fill-opacity:1;fill-rule:nonzero;stroke-width:0.21906346"
     d="m 463.08013,368.86757 c -0.16596,-0.10931 -0.69606,-0.18409 -1.17799,-0.16617 -0.48194,0.0179 -1.02413,-0.0208 -1.20485,-0.0859 -0.32497,-0.11723 -3.87769,-0.60913 -5.148,-0.71279 -0.36145,-0.0295 -0.80505,-0.10646 -0.98578,-0.17105 -0.8479,-0.30302 -4.65735,-1.01643 -4.83644,-0.90575 -0.11111,0.0687 -0.20202,0.009 -0.20202,-0.13269 0,-0.14969 -0.18348,-0.20956 -0.43813,-0.14296 -0.24097,0.063 -0.43812,0.0137 -0.43812,-0.10954 0,-0.12325 -0.19716,-0.17254 -0.43813,-0.10953 -0.24097,0.063 -0.43813,0.0414 -0.43813,-0.0481 0,-0.21514 -2.60196,-0.93408 -2.84252,-0.78541 -0.10282,0.0636 -0.22001,0.0317 -0.26042,-0.0707 -0.10096,-0.25596 -4.13999,-1.58626 -4.37507,-1.44097 -0.10406,0.0643 -0.18921,0.0258 -0.18921,-0.0857 0,-0.22196 -3.22751,-1.48485 -3.66931,-1.43576 -0.15061,0.0167 -0.27383,-0.0414 -0.27383,-0.12913 0,-0.22893 -1.09297,-0.69533 -1.31209,-0.5599 -0.10116,0.0625 -0.217,0.0268 -0.25741,-0.0794 -0.11774,-0.30937 -2.80804,-1.59034 -3.03954,-1.44727 -0.1157,0.0715 -0.21036,0.0198 -0.21036,-0.11491 0,-0.13471 -0.0986,-0.18399 -0.21906,-0.10953 -0.12049,0.0745 -0.21906,0.0252 -0.21906,-0.10953 0,-0.13471 -0.0986,-0.184 -0.21907,-0.10953 -0.12048,0.0745 -0.21906,0.0252 -0.21906,-0.10954 0,-0.1347 -0.0986,-0.18399 -0.21907,-0.10953 -0.12048,0.0745 -0.21906,0.0324 -0.21906,-0.0935 0,-0.28358 -2.5246,-1.58067 -2.71193,-1.39333 -0.0747,0.0747 -0.13589,0.0234 -0.13589,-0.11406 0,-0.13747 -0.29574,-0.40288 -0.65719,-0.58979 -0.36146,-0.18692 -0.65719,-0.28803 -0.65719,-0.22469 0,0.0633 -0.20076,-0.0856 -0.44612,-0.33096 -0.24537,-0.24537 -0.5411,-0.38742 -0.65719,-0.31567 -0.11609,0.0718 -0.21108,0.0374 -0.21108,-0.0763 0,-0.22873 -0.89956,-0.86976 -1.35266,-0.96392 -0.1588,-0.033 -0.38766,-0.16767 -0.50858,-0.29927 -0.12092,-0.1316 -1.18007,-0.89976 -2.35367,-1.70701 -18.75433,-12.90012 -31.66517,-32.51263 -36.21302,-55.01021 -0.41405,-2.04825 -0.75353,-3.94588 -0.7544,-4.21697 -8.8e-4,-0.2711 -0.0755,-0.49375 -0.16589,-0.49478 -0.0904,-0.001 -0.1935,-0.76202 -0.2292,-1.69108 -0.0357,-0.92905 -0.14652,-1.74148 -0.24628,-1.80539 -0.25802,-0.16528 -0.21946,-17.96987 0.0389,-17.96987 0.11376,0 0.17156,-0.4436 0.12844,-0.98578 -0.0431,-0.54218 0.007,-0.98579 0.11144,-0.98579 0.10441,0 0.14956,-0.34502 0.10033,-0.76672 -0.0492,-0.4217 6e-5,-0.76672 0.10954,-0.76672 0.10947,0 0.15876,-0.34503 0.10953,-0.76672 -0.0492,-0.4217 -0.0242,-0.76673 0.0555,-0.76673 0.0798,0 0.26811,-0.76398 0.41855,-1.69774 0.36706,-2.27817 1.59548,-7.25664 2.55401,-10.35075 3.2087,-10.35756 8.5884,-20.43958 15.54651,-29.13544 2.69307,-3.36566 9.02335,-9.78894 12.17931,-12.35824 9.10565,-7.41302 19.11629,-12.86294 29.85873,-16.2555 1.44582,-0.4566 2.66183,-0.90926 2.70224,-1.0059 0.0404,-0.0966 0.15797,-0.1235 0.26124,-0.0597 0.24683,0.15255 4.02489,-0.78981 4.12003,-1.02766 0.0404,-0.10103 0.15943,-0.13057 0.26449,-0.0656 0.22837,0.14114 3.05671,-0.35489 3.05937,-0.53655 10e-4,-0.0695 0.56745,-0.1499 1.25874,-0.17857 0.69129,-0.0287 1.29034,-0.15252 1.33124,-0.2752 0.0409,-0.12268 0.15873,-0.1709 0.26187,-0.10716 0.10314,0.0637 1.69662,-0.0547 3.54107,-0.26321 2.60886,-0.29492 4.83723,-0.36649 10.03499,-0.3223 7.89351,0.0671 9.27356,0.10511 9.41972,0.25932 0.18149,0.19147 5.48419,0.89138 5.70755,0.75334 0.11394,-0.0704 0.20717,-0.0407 0.20717,0.0661 0,0.22828 2.77765,0.77721 3.05751,0.60425 0.10506,-0.0649 0.22408,-0.0346 0.2645,0.0674 0.0736,0.18576 4.822,1.46023 5.44053,1.46023 0.18072,0 0.37788,0.0592 0.43812,0.13167 0.0602,0.0724 0.94745,0.40349 1.97157,0.73573 3.71794,1.20615 8.73765,3.30037 12.59615,5.2551 8.62939,4.37167 15.54477,9.39391 22.46819,16.31732 7.00939,7.00939 11.97638,13.91807 16.38975,22.79679 4.66981,9.39462 7.26267,17.96247 8.69948,28.74655 0.4637,3.48031 0.65069,13.39864 0.32609,17.29602 -1.75771,21.10437 -10.61846,40.32865 -25.42927,55.17134 -6.24403,6.25748 -12.92934,11.20662 -21.0327,15.57055 -1.86621,1.00502 -3.42617,1.90435 -3.46658,1.99852 -0.0404,0.0942 -0.15721,0.11946 -0.25954,0.0562 -0.2333,-0.14418 -2.18622,0.78939 -2.18622,1.0451 0,0.10359 -0.0877,0.13416 -0.19481,0.0679 -0.25481,-0.15748 -2.43395,0.74941 -2.43395,1.01293 0,0.11153 -0.0895,0.14745 -0.19899,0.0798 -0.22642,-0.13994 -3.81713,1.1738 -3.9226,1.43516 -0.0379,0.0939 -0.21042,0.11649 -0.38336,0.0501 -0.17295,-0.0664 -0.31445,-0.0146 -0.31445,0.11496 0,0.1296 -0.14786,0.17888 -0.32859,0.10953 -0.18073,-0.0693 -0.3286,-0.0111 -0.3286,0.12934 0,0.14048 -0.0868,0.20176 -0.19295,0.13617 -0.19303,-0.11929 -3.32446,0.73067 -3.53112,0.95846 -0.0602,0.0664 -0.20811,0.12124 -0.3286,0.12187 -0.53866,0.003 -5.14799,1.09719 -5.14799,1.22227 0,0.0769 -0.24645,0.0926 -0.54766,0.0351 -0.33297,-0.0636 -0.54766,-0.004 -0.54766,0.15284 0,0.14164 -0.0949,0.19889 -0.21084,0.12723 -0.2084,-0.12881 -2.87769,0.23691 -3.51324,0.48134 -0.18072,0.0695 -0.54874,0.10488 -0.81782,0.0786 -0.26907,-0.0263 -0.6026,0.0223 -0.74118,0.10795 -0.36498,0.22557 -1.05005,0.25551 -9.28464,0.40578 -4.09649,0.0748 -7.80527,0.17193 -8.24174,0.21594 -0.43646,0.044 -0.92936,-0.009 -1.09531,-0.11872 z m 73.1777,-109.99953 c 0.4127,-0.0822 0.81803,-0.25893 0.90074,-0.39276 0.0827,-0.13382 0.21329,-0.2349 0.29018,-0.22461 0.49358,0.0661 0.76988,-0.033 1.19382,-0.42795 0.26369,-0.24566 0.48271,-0.36889 0.48672,-0.27383 0.004,0.0951 0.18893,-0.0448 0.41094,-0.31075 0.222,-0.26596 0.45462,-0.43259 0.51694,-0.37027 0.0623,0.0623 0.5428,-0.38532 1.06775,-0.99474 0.52494,-0.60942 0.90515,-1.13516 0.84491,-1.16831 -0.0602,-0.0332 0.0935,-0.27818 0.34161,-0.54451 0.41694,-0.44753 1.34353,-2.79917 1.40199,-3.55815 0.0139,-0.18073 0.0806,-0.84842 0.14812,-1.48376 0.0675,-0.63535 0.0492,-1.3254 -0.0408,-1.53345 -0.09,-0.20805 -0.14187,-0.60008 -0.11534,-0.87117 0.0265,-0.27109 -0.0543,-0.49289 -0.17961,-0.49289 -0.12533,0 -0.17113,-0.14787 -0.10178,-0.32859 0.0694,-0.18073 0.0201,-0.3286 -0.10953,-0.3286 -0.12959,0 -0.17888,-0.14787 -0.10953,-0.32859 0.0694,-0.18073 0.0112,-0.3286 -0.12933,-0.3286 -0.14049,0 -0.19451,-0.0986 -0.12004,-0.21906 0.0745,-0.12049 0.0252,-0.21907 -0.10954,-0.21907 -0.1347,0 -0.18399,-0.0986 -0.10953,-0.21906 0.0745,-0.12049 0.031,-0.21906 -0.0966,-0.21906 -0.1276,0 -0.22032,-0.0739 -0.20605,-0.1643 0.0143,-0.0904 0.0143,-0.28392 0,-0.43011 -0.0373,-0.3827 -2.66856,-3.14697 -2.87439,-3.01976 -0.0949,0.0587 -0.23146,-0.0469 -0.30347,-0.23459 -0.072,-0.18767 -0.23021,-0.27986 -0.35155,-0.20487 -0.12134,0.075 -0.22061,0.0386 -0.22061,-0.0809 0,-0.21785 -0.84192,-0.59063 -1.15008,-0.50922 -0.0904,0.0239 -0.1643,-0.0396 -0.1643,-0.14098 0,-0.18671 -1.57473,-0.7343 -1.90291,-0.66172 -0.098,0.0217 -0.32952,-0.028 -0.51448,-0.11028 -0.33777,-0.15034 -41.65191,-0.0465 -42.74627,0.10748 -0.32134,0.0452 -0.65136,0.14932 -0.73338,0.23139 -0.082,0.0821 -0.28735,0.0962 -0.4563,0.0313 -0.16895,-0.0648 -0.30718,-0.003 -0.30718,0.13756 0,0.14048 -0.0952,0.19659 -0.21155,0.12468 -0.26305,-0.16257 -1.97908,0.69203 -1.97908,0.9856 0,0.11803 -0.0867,0.18996 -0.19268,0.15984 -0.55693,-0.15829 -3.46918,2.90972 -3.19031,3.36094 0.0676,0.10936 0.0127,0.19884 -0.12203,0.19884 -0.13471,0 -0.184,0.0986 -0.10953,0.21907 0.0745,0.12048 0.0252,0.21906 -0.10953,0.21906 -0.13471,0 -0.184,0.0986 -0.10953,0.21906 0.0745,0.12049 0.0356,0.21907 -0.0863,0.21907 -0.24777,0 -0.72311,1.5062 -0.5591,1.77158 0.0577,0.0933 0.0181,0.22336 -0.088,0.28893 -0.3973,0.24554 -0.0315,5.60671 0.38257,5.60671 0.0814,0 0.16382,0.20905 0.18306,0.46455 0.0923,1.2246 3.91151,5.4227 4.50993,4.95727 0.0387,-0.0301 0.24292,0.11775 0.45377,0.32859 0.34146,0.34146 0.79549,0.4863 1.28309,0.40931 0.0904,-0.0143 0.16429,0.0654 0.16429,0.17706 0,0.11165 0.17252,0.2485 0.38336,0.30413 0.61154,0.16132 44.11584,0.0379 44.94643,-0.12754 z"
     id="path4938"
     inkscape:connector-curvature="0" />
  <path
     style="fill:#ff5555;fill-opacity:1;fill-rule:nonzero;stroke-width:0.21906346"
     d="m 461.35448,171.62588 c -14.2968,-1.75151 -26.56165,-6.26777 -38.00588,-13.99485 -5.53167,-3.73495 -10.09205,-7.72461 -15.29189,-13.37815 -11.79139,-12.82021 -19.61093,-30.57814 -21.17621,-48.09046 -0.33469,-3.744564 -0.27929,-13.184828 0.0971,-16.539292 2.2238,-19.820785 10.68771,-37.327781 24.68244,-51.053835 C 424.30056,16.17145 439.4012,8.5676945 457.3124,5.5815698 c 4.88997,-0.8152484 8.95324,-1.0655381 14.99529,-0.923682 5.96484,0.1400434 9.05352,0.4765921 14.58096,1.5887694 25.09453,5.0492728 46.27254,21.1077428 57.912,43.9124358 9.18371,17.993272 11.59461,38.633037 6.80415,58.250697 -2.81191,11.51521 -8.41807,22.7947 -16.12419,32.44158 -2.97146,3.7198 -8.97597,9.74001 -12.61958,12.65257 -2.86347,2.28895 -8.3428,6.00558 -11.45051,7.76688 -8.78291,4.97773 -18.50796,8.29685 -29.14872,9.94836 -3.35045,0.52 -4.42345,0.5827 -11.04943,0.64563 -5.35083,0.0508 -8.021,-0.0139 -9.85785,-0.23893 z m 58.55297,-68.57508 c 4.89348,-1.88855 8.3239,-4.988612 10.32762,-9.333067 1.03641,-2.247131 1.43004,-3.87191 1.58465,-6.540863 0.44652,-7.708396 -4.20591,-14.691784 -11.69333,-17.551927 l -1.92495,-0.735318 -47.6463,-3.04e-4 -47.6463,-3.02e-4 -1.63354,0.512967 c -4.90074,1.538937 -8.55068,4.641756 -10.73499,9.125825 -1.42041,2.915895 -1.76182,4.429038 -1.75783,7.790749 0.004,3.395646 0.34757,4.922908 1.74612,7.762757 2.58073,5.240375 7.65419,8.975663 12.9279,9.518063 0.90363,0.0929 22.5207,0.18277 48.03792,0.19962 l 46.39495,0.0306 z"
     id="path4940"
     inkscape:connector-curvature="0" />
  <path
     style="fill:#ff5555;fill-opacity:1;fill-rule:nonzero;stroke-width:0.21906346"
     d="m 461.7926,368.66567 c -2.45953,-0.29115 -7.48481,-1.05715 -9.31019,-1.41914 -2.39165,-0.47429 -7.44876,-1.81823 -8.65301,-2.29956 -0.54218,-0.2167 -1.61445,-0.55633 -2.38282,-0.75473 -0.76837,-0.1984 -1.60629,-0.49528 -1.86204,-0.65973 -0.25575,-0.16446 -1.05648,-0.49642 -1.77939,-0.7377 -0.72291,-0.24128 -1.61011,-0.59306 -1.97157,-0.78174 -0.36145,-0.18867 -0.78984,-0.34364 -0.95197,-0.34439 -0.16212,-6.5e-4 -0.55644,-0.18129 -0.87625,-0.40122 -0.31981,-0.21994 -0.9265,-0.53271 -1.3482,-0.69506 -0.89751,-0.34553 -5.24556,-2.57719 -5.63086,-2.89006 -0.14509,-0.11782 -0.59286,-0.38198 -0.99504,-0.58703 -1.88936,-0.96325 -7.28798,-4.72757 -11.08704,-7.73071 -2.95864,-2.33879 -8.76366,-7.99207 -11.43142,-11.13261 -7.48599,-8.81264 -13.04298,-18.72366 -16.60959,-29.6236 -1.3037,-3.98424 -2.12136,-7.18612 -3.233,-12.66009 l -0.823,-4.05268 -0.0846,-9.32511 c -0.0936,-10.32271 0.0259,-11.98664 1.28907,-17.94829 1.92339,-9.07764 4.2534,-15.83181 7.97274,-23.11119 2.90054,-5.67686 6.92672,-11.81653 10.70222,-16.32023 2.17225,-2.59122 7.7182,-8.23382 10.21284,-10.3908 6.89848,-5.96476 15.72093,-11.35928 24.18573,-14.78847 3.53799,-1.43328 9.27595,-3.39704 10.86637,-3.71891 0.66266,-0.13411 1.69774,-0.38377 2.30016,-0.55478 2.45782,-0.69773 7.02957,-1.44018 10.95317,-1.77879 3.24562,-0.2801 5.77831,-0.33467 11.50084,-0.24782 4.16779,0.0633 7.76456,0.21532 8.32441,0.35193 0.54218,0.1323 2.02086,0.38766 3.28595,0.56747 6.40777,0.91075 12.81046,2.78053 20.00187,5.84117 12.26695,5.22077 22.35372,12.46173 31.53493,22.6379 11.88729,13.1755 19.97641,31.64343 21.63177,49.38662 0.31487,3.375 0.32173,14.46126 0.0107,17.3182 -1.22664,11.26749 -4.08843,21.09613 -8.99351,30.88761 -6.62772,13.23018 -16.77631,24.79419 -29.01881,33.06602 -2.88981,1.95255 -11.53955,7.02293 -11.98066,7.02293 -0.12217,0 -0.82981,0.28399 -1.57253,0.63109 -2.14224,1.00114 -3.90799,1.73401 -4.85542,2.01523 -0.48193,0.14305 -1.1719,0.41001 -1.53326,0.59325 -0.36136,0.18323 -1.79075,0.67093 -3.17642,1.08376 -4.50193,1.34125 -8.0121,2.1216 -14.12977,3.14123 -0.72291,0.12048 -4.61677,0.30964 -8.65301,0.42035 -8.32069,0.22822 -9.82539,0.22691 -11.82943,-0.0103 z m 75.2483,-109.98749 c 0.36146,-0.19686 1.0437,-0.54189 1.5161,-0.76672 1.4405,-0.68561 3.24921,-2.63511 4.16046,-4.48431 2.1079,-4.27756 1.29232,-8.97934 -2.10697,-12.14645 -0.76925,-0.71672 -1.64066,-1.41294 -1.93646,-1.54717 -0.29579,-0.13423 -1.0307,-0.47926 -1.63313,-0.76672 l -1.09531,-0.52267 -17.41555,-0.0619 c -19.54909,-0.0695 -26.99409,0.11228 -28.35511,0.69216 -2.49747,1.06406 -4.37238,2.85666 -5.52385,5.28135 -1.23266,2.59562 -1.23106,6.29859 0.004,8.89542 0.84345,1.77367 2.98944,4.03016 4.48617,4.71718 0.68161,0.31287 1.48574,0.70788 1.78695,0.87781 0.4634,0.26142 4.0022,0.2998 23.00166,0.24944 20.29148,-0.0538 22.5173,-0.094 23.1112,-0.41745 z"
     id="path4942"
     inkscape:connector-curvature="0" />
</svg>
