<?xml version="1.0" encoding="utf-8"?>
<!-- Generator: Adobe Illustrator 23.0.4, SVG Export Plug-In . SVG Version: 6.00 Build 0)  -->
<!DOCTYPE svg PUBLIC "-//W3C//DTD SVG 1.1//EN" "http://www.w3.org/Graphics/SVG/1.1/DTD/svg11.dtd" [
	<!ENTITY ns_extend "http://ns.adobe.com/Extensibility/1.0/">
	<!ENTITY ns_ai "http://ns.adobe.com/AdobeIllustrator/10.0/">
	<!ENTITY ns_graphs "http://ns.adobe.com/Graphs/1.0/">
	<!ENTITY ns_vars "http://ns.adobe.com/Variables/1.0/">
	<!ENTITY ns_imrep "http://ns.adobe.com/ImageReplacement/1.0/">
	<!ENTITY ns_sfw "http://ns.adobe.com/SaveForWeb/1.0/">
	<!ENTITY ns_custom "http://ns.adobe.com/GenericCustomNamespace/1.0/">
	<!ENTITY ns_adobe_xpath "http://ns.adobe.com/XPath/1.0/">
]>
<svg version="1.1" id="ÉåÉCÉÑÅ_x5B__x5F_1" xmlns:x="&ns_extend;" xmlns:i="&ns_ai;" xmlns:graph="&ns_graphs;"
	 xmlns="http://www.w3.org/2000/svg" xmlns:xlink="http://www.w3.org/1999/xlink" x="0px" y="0px" viewBox="0 0 483.5 500"
	 enable-background="new 0 0 483.5 500" xml:space="preserve">
<metadata>
	<sfw  xmlns="&ns_sfw;">
		<slices></slices>
		<sliceSourceBounds  bottomLeftOrigin="true" height="500" width="483.5" x="49.9" y="36.3"></sliceSourceBounds>
	</sfw>
</metadata>
<g>
	<g>
		<g>
			<g>
				<rect x="64" y="204.8" fill="#6F6F6F" width="67.3" height="31"/>
				<polygon fill="#6F6F6F" points="61.6,149.2 80.6,213.7 50.8,222.5 31.8,158 				"/>
				<polygon fill="#ABACAD" points="74.4,194.5 84.7,206.5 67.5,244.5 43.3,218.6 				"/>
				<g>
					
						<rect x="6.3" y="118.2" transform="matrix(0.9631 -0.2691 0.2691 0.9631 -37.9044 9.7695)" fill="#ABACAD" width="20.7" height="49.9"/>
					<polygon fill="#ABACAD" points="79.8,151.4 59.9,157 46.5,108.9 66.4,103.3 					"/>
					<polygon fill="#ABACAD" points="13.4,170 7.8,150 74.3,131.4 79.8,151.4 					"/>
				</g>
			</g>
			<g>
				<rect x="352.1" y="204.8" fill="#6F6F6F" width="67.3" height="31"/>
				
					<rect x="393.6" y="170.3" transform="matrix(0.2828 -0.9592 0.9592 0.2828 128.1535 543.04)" fill="#6F6F6F" width="67.3" height="31"/>
				<polygon fill="#ABACAD" points="409,194.5 398.7,206.5 415.9,244.5 440.1,218.6 				"/>
				<g>
					
						<rect x="441.9" y="132.8" transform="matrix(0.2692 -0.9631 0.9631 0.2692 203.2755 554.2384)" fill="#ABACAD" width="49.9" height="20.7"/>
					<polygon fill="#ABACAD" points="403.6,151.4 423.5,157 437,108.9 417,103.3 					"/>
					<polygon fill="#ABACAD" points="470,170 475.6,150 409.2,131.4 403.6,151.4 					"/>
				</g>
			</g>
			<g>
				<g>
					<path fill="#ABACAD" d="M159.8,495c-7.5,0-13.5-6.1-13.5-13.5v-83.1c0-7.5,6-13.5,13.5-13.5h36.8c7.5,0,13.5,6,13.5,13.5v83.1
						c0,7.5-6.1,13.5-13.5,13.5H159.8z"/>
					<path fill="#6F6F6F" d="M217.8,492.7c0,4-3.3,7.3-7.3,7.3h-64.6c-4,0-7.3-3.3-7.3-7.3v-23.8c0-4,3.3-7.3,7.3-7.3h64.6
						c4,0,7.3,3.3,7.3,7.3V492.7z"/>
				</g>
				<g>
					<path fill="#ABACAD" d="M285.7,495c-7.5,0-13.5-6.1-13.5-13.5v-83.1c0-7.5,6.1-13.5,13.5-13.5h36.8c7.5,0,13.5,6,13.5,13.5
						v83.1c0,7.5-6,13.5-13.5,13.5H285.7z"/>
					<path fill="#6F6F6F" d="M343.7,492.7c0,4-3.3,7.3-7.3,7.3h-64.6c-4,0-7.3-3.3-7.3-7.3v-23.8c0-4,3.3-7.3,7.3-7.3h64.6
						c4,0,7.3,3.3,7.3,7.3V492.7z"/>
				</g>
			</g>
			<g>
				<path fill="#657EAC" d="M209.9,254.1c0,7.5-6,13.5-13.5,13.5h-83.1c-7.5,0-13.5-6.1-13.5-13.5v-66.9c0-7.5,6-13.5,13.5-13.5
					h83.1c7.5,0,13.5,6,13.5,13.5V254.1z"/>
				<path fill="#657EAC" d="M382.4,254.1c0,7.5-6,13.5-13.5,13.5h-83.1c-7.5,0-13.5-6.1-13.5-13.5v-66.9c0-7.5,6-13.5,13.5-13.5
					h83.1c7.5,0,13.5,6,13.5,13.5V254.1z"/>
			</g>
			<path fill="#6F6F6F" d="M362.3,372.4c0,17-13.8,30.7-30.7,30.7H150.7c-17,0-30.7-13.8-30.7-30.7V182.8c0-17,13.8-30.8,30.7-30.8
				h180.9c17,0,30.7,13.8,30.7,30.8V372.4z"/>
			<g>
				<g>
					<path fill="#6F6F6F" d="M236.2,115.1c0,7.5-6.1,13.5-13.5,13.5h-83.1c-7.5,0-13.5-6-13.5-13.5V48.2c0-7.5,6-13.5,13.5-13.5
						h83.1c7.5,0,13.5,6,13.5,13.5V115.1z"/>
					<path fill="#6F6F6F" d="M356.1,115.1c0,7.5-6,13.5-13.5,13.5h-83.1c-7.5,0-13.5-6-13.5-13.5V48.2c0-7.5,6.1-13.5,13.5-13.5
						h83.1c7.5,0,13.5,6,13.5,13.5V115.1z"/>
				</g>
				<path fill="#ABACAD" d="M336.9,139.9c0,13-10.5,23.5-23.5,23.5H168.9c-13,0-23.5-10.5-23.5-23.5V23.5c0-13,10.5-23.5,23.5-23.5
					h144.5c13,0,23.5,10.5,23.5,23.5V139.9z"/>
				<path fill="#EFEADD" d="M291.8,147.2c0,4-3.3,7.3-7.3,7.3h-86.6c-4,0-7.3-3.3-7.3-7.3v-18.7c0-4,3.3-7.3,7.3-7.3h86.6
					c4.1,0,7.3,3.3,7.3,7.3V147.2z"/>
				<g>
					<path fill="#DCBF65" d="M310.2,74.9c0,9.8-7.9,17.6-17.6,17.6S275,84.6,275,74.9s7.9-17.6,17.6-17.6
						C302.3,57.2,310.2,65.1,310.2,74.9z"/>
					<ellipse fill="#DCBF65" cx="189.7" cy="74.9" rx="17.6" ry="17.6"/>
				</g>
			</g>
			<polygon fill="#6F6F6F" points="260.2,111.3 222.1,111.3 228.7,52.1 253.6,52.1 			"/>
		</g>
		<path opacity="0.3" fill="#ABACAD" enable-background="new    " d="M305.8,302.3c0,8.8-7.1,15.9-15.9,15.9h-97.6
			c-8.8,0-15.9-7.1-15.9-15.9v-78.6c0-8.8,7.1-15.9,15.9-15.9h97.6c8.8,0,15.9,7.1,15.9,15.9V302.3z"/>
	</g>
</g>
</svg>
